<mxfile host="app.diagrams.net" modified="2024-06-10T13:04:38.831Z" agent="Mozilla/5.0 (Windows NT 10.0; Win64; x64) AppleWebKit/537.36 (KHTML, like Gecko) Chrome/124.0.0.0 Whale/3.26.244.21 Safari/537.36" etag="CMYtuOXAQft28DmpTYPB" version="24.4.13" type="github" pages="3">
  <diagram name="Business Context Diagram" id="6LM1v-zc90LmGFOM53EV">
    <mxGraphModel dx="1290" dy="582" grid="1" gridSize="10" guides="1" tooltips="1" connect="1" arrows="1" fold="1" page="1" pageScale="1" pageWidth="827" pageHeight="1169" math="0" shadow="0">
      <root>
        <mxCell id="0" />
        <mxCell id="1" parent="0" />
        <mxCell id="Lw_55-2FXYPwDF8fNayq-2" value="&lt;span style=&quot;color: rgba(0, 0, 0, 0.87); font-family: &amp;quot;Malgun Gothic&amp;quot;, -apple-system, BlinkMacSystemFont, Helvetica, Arial, sans-serif; text-align: left; background-color: rgb(255, 255, 255);&quot;&gt;&lt;font style=&quot;font-size: 12px;&quot;&gt;Business Context Diagram&lt;/font&gt;&lt;/span&gt;" style="shape=umlFrame;whiteSpace=wrap;html=1;pointerEvents=0;recursiveResize=0;container=1;collapsible=0;width=180;height=30;" vertex="1" parent="1">
          <mxGeometry x="70" y="140" width="660" height="390" as="geometry" />
        </mxCell>
        <mxCell id="Lw_55-2FXYPwDF8fNayq-4" value="대중교통 길찾기 혼잡도 분석 서비스" style="ellipse;whiteSpace=wrap;html=1;" vertex="1" parent="Lw_55-2FXYPwDF8fNayq-2">
          <mxGeometry x="260" y="170" width="130" height="80" as="geometry" />
        </mxCell>
        <mxCell id="Lw_55-2FXYPwDF8fNayq-6" value="서울교통공사" style="rounded=0;whiteSpace=wrap;html=1;" vertex="1" parent="Lw_55-2FXYPwDF8fNayq-2">
          <mxGeometry x="120" y="80" width="130" height="40" as="geometry" />
        </mxCell>
        <mxCell id="Lw_55-2FXYPwDF8fNayq-7" value="한국철도공사" style="rounded=0;whiteSpace=wrap;html=1;" vertex="1" parent="Lw_55-2FXYPwDF8fNayq-2">
          <mxGeometry x="20" y="190" width="130" height="40" as="geometry" />
        </mxCell>
        <mxCell id="Lw_55-2FXYPwDF8fNayq-8" value="버스 정보 안내 단말기&amp;nbsp;" style="rounded=0;whiteSpace=wrap;html=1;" vertex="1" parent="Lw_55-2FXYPwDF8fNayq-2">
          <mxGeometry x="120" y="310" width="130" height="40" as="geometry" />
        </mxCell>
        <mxCell id="Lw_55-2FXYPwDF8fNayq-11" value="서비스 이용자" style="rounded=0;whiteSpace=wrap;html=1;" vertex="1" parent="Lw_55-2FXYPwDF8fNayq-2">
          <mxGeometry x="410" y="40" width="130" height="40" as="geometry" />
        </mxCell>
        <mxCell id="Lw_55-2FXYPwDF8fNayq-14" value="길찾기 API" style="rounded=0;whiteSpace=wrap;html=1;" vertex="1" parent="Lw_55-2FXYPwDF8fNayq-2">
          <mxGeometry x="400" y="320" width="130" height="40" as="geometry" />
        </mxCell>
        <mxCell id="Lw_55-2FXYPwDF8fNayq-15" value="시스템 관리자" style="rounded=0;whiteSpace=wrap;html=1;" vertex="1" parent="Lw_55-2FXYPwDF8fNayq-2">
          <mxGeometry x="490" y="200" width="130" height="40" as="geometry" />
        </mxCell>
        <mxCell id="Lw_55-2FXYPwDF8fNayq-21" value="" style="endArrow=classic;startArrow=classic;html=1;rounded=0;entryX=0;entryY=1;entryDx=0;entryDy=0;exitX=0.5;exitY=0;exitDx=0;exitDy=0;" edge="1" parent="Lw_55-2FXYPwDF8fNayq-2" source="Lw_55-2FXYPwDF8fNayq-8" target="Lw_55-2FXYPwDF8fNayq-4">
          <mxGeometry width="50" height="50" relative="1" as="geometry">
            <mxPoint x="310" y="290" as="sourcePoint" />
            <mxPoint x="360" y="240" as="targetPoint" />
          </mxGeometry>
        </mxCell>
        <mxCell id="Lw_55-2FXYPwDF8fNayq-22" value="실시간 버스 혼잡도" style="text;html=1;align=center;verticalAlign=middle;resizable=0;points=[];autosize=1;strokeColor=none;fillColor=none;" vertex="1" parent="Lw_55-2FXYPwDF8fNayq-2">
          <mxGeometry x="220" y="270" width="130" height="30" as="geometry" />
        </mxCell>
        <mxCell id="Lw_55-2FXYPwDF8fNayq-24" value="실시간 지하철 혼잡도" style="text;html=1;align=center;verticalAlign=middle;resizable=0;points=[];autosize=1;strokeColor=none;fillColor=none;" vertex="1" parent="Lw_55-2FXYPwDF8fNayq-2">
          <mxGeometry x="125" y="160" width="140" height="30" as="geometry" />
        </mxCell>
        <mxCell id="Lw_55-2FXYPwDF8fNayq-25" value="" style="endArrow=classic;startArrow=classic;html=1;rounded=0;entryX=0;entryY=0.5;entryDx=0;entryDy=0;exitX=1;exitY=0.5;exitDx=0;exitDy=0;" edge="1" parent="Lw_55-2FXYPwDF8fNayq-2" source="Lw_55-2FXYPwDF8fNayq-7" target="Lw_55-2FXYPwDF8fNayq-4">
          <mxGeometry width="50" height="50" relative="1" as="geometry">
            <mxPoint x="205" y="310" as="sourcePoint" />
            <mxPoint x="289" y="248" as="targetPoint" />
          </mxGeometry>
        </mxCell>
        <mxCell id="Lw_55-2FXYPwDF8fNayq-26" value="" style="endArrow=classic;startArrow=classic;html=1;rounded=0;entryX=0.388;entryY=-0.012;entryDx=0;entryDy=0;exitX=1;exitY=0.5;exitDx=0;exitDy=0;entryPerimeter=0;" edge="1" parent="Lw_55-2FXYPwDF8fNayq-2" source="Lw_55-2FXYPwDF8fNayq-6" target="Lw_55-2FXYPwDF8fNayq-4">
          <mxGeometry width="50" height="50" relative="1" as="geometry">
            <mxPoint x="160" y="220" as="sourcePoint" />
            <mxPoint x="270" y="220" as="targetPoint" />
          </mxGeometry>
        </mxCell>
        <mxCell id="Lw_55-2FXYPwDF8fNayq-27" value="실시간 지하철&lt;div&gt;혼잡도&lt;/div&gt;" style="text;html=1;align=center;verticalAlign=middle;resizable=0;points=[];autosize=1;strokeColor=none;fillColor=none;rotation=0;" vertex="1" parent="Lw_55-2FXYPwDF8fNayq-2">
          <mxGeometry x="260" y="100" width="100" height="40" as="geometry" />
        </mxCell>
        <mxCell id="Lw_55-2FXYPwDF8fNayq-29" value="서비스 이용" style="text;html=1;align=center;verticalAlign=middle;resizable=0;points=[];autosize=1;strokeColor=none;fillColor=none;rotation=0;" vertex="1" parent="Lw_55-2FXYPwDF8fNayq-2">
          <mxGeometry x="320" y="80" width="90" height="30" as="geometry" />
        </mxCell>
        <mxCell id="Lw_55-2FXYPwDF8fNayq-30" value="" style="endArrow=classic;startArrow=classic;html=1;rounded=0;entryX=0.769;entryY=0;entryDx=0;entryDy=0;exitX=0;exitY=1;exitDx=0;exitDy=0;entryPerimeter=0;" edge="1" parent="Lw_55-2FXYPwDF8fNayq-2" source="Lw_55-2FXYPwDF8fNayq-11" target="Lw_55-2FXYPwDF8fNayq-4">
          <mxGeometry width="50" height="50" relative="1" as="geometry">
            <mxPoint x="260" y="110" as="sourcePoint" />
            <mxPoint x="320" y="179" as="targetPoint" />
          </mxGeometry>
        </mxCell>
        <mxCell id="Lw_55-2FXYPwDF8fNayq-32" value="" style="endArrow=classic;startArrow=classic;html=1;rounded=0;entryX=1.04;entryY=0.628;entryDx=0;entryDy=0;exitX=0;exitY=0.5;exitDx=0;exitDy=0;entryPerimeter=0;" edge="1" parent="Lw_55-2FXYPwDF8fNayq-2" source="Lw_55-2FXYPwDF8fNayq-15" target="Lw_55-2FXYPwDF8fNayq-4">
          <mxGeometry width="50" height="50" relative="1" as="geometry">
            <mxPoint x="420" y="130" as="sourcePoint" />
            <mxPoint x="370" y="180" as="targetPoint" />
          </mxGeometry>
        </mxCell>
        <mxCell id="Lw_55-2FXYPwDF8fNayq-33" value="" style="endArrow=classic;startArrow=classic;html=1;rounded=0;exitX=0.769;exitY=1;exitDx=0;exitDy=0;exitPerimeter=0;entryX=0.25;entryY=0;entryDx=0;entryDy=0;" edge="1" parent="Lw_55-2FXYPwDF8fNayq-2" source="Lw_55-2FXYPwDF8fNayq-4" target="Lw_55-2FXYPwDF8fNayq-14">
          <mxGeometry width="50" height="50" relative="1" as="geometry">
            <mxPoint x="205" y="310" as="sourcePoint" />
            <mxPoint x="289" y="248" as="targetPoint" />
          </mxGeometry>
        </mxCell>
        <mxCell id="Lw_55-2FXYPwDF8fNayq-34" value="길찾기 경로" style="text;html=1;align=center;verticalAlign=middle;resizable=0;points=[];autosize=1;strokeColor=none;fillColor=none;" vertex="1" parent="Lw_55-2FXYPwDF8fNayq-2">
          <mxGeometry x="400" y="270" width="90" height="30" as="geometry" />
        </mxCell>
        <mxCell id="Lw_55-2FXYPwDF8fNayq-35" value="시스템 유지보수" style="text;html=1;align=center;verticalAlign=middle;resizable=0;points=[];autosize=1;strokeColor=none;fillColor=none;" vertex="1" parent="Lw_55-2FXYPwDF8fNayq-2">
          <mxGeometry x="380" y="190" width="110" height="30" as="geometry" />
        </mxCell>
        <mxCell id="Lw_55-2FXYPwDF8fNayq-36" value="서울시" style="rounded=0;whiteSpace=wrap;html=1;" vertex="1" parent="Lw_55-2FXYPwDF8fNayq-2">
          <mxGeometry x="500" y="140" width="130" height="40" as="geometry" />
        </mxCell>
        <mxCell id="Lw_55-2FXYPwDF8fNayq-37" value="" style="endArrow=classic;startArrow=classic;html=1;rounded=0;exitX=1;exitY=0;exitDx=0;exitDy=0;entryX=0;entryY=0.5;entryDx=0;entryDy=0;" edge="1" parent="Lw_55-2FXYPwDF8fNayq-2" source="Lw_55-2FXYPwDF8fNayq-4" target="Lw_55-2FXYPwDF8fNayq-36">
          <mxGeometry width="50" height="50" relative="1" as="geometry">
            <mxPoint x="420" y="130" as="sourcePoint" />
            <mxPoint x="370" y="180" as="targetPoint" />
          </mxGeometry>
        </mxCell>
        <mxCell id="Lw_55-2FXYPwDF8fNayq-39" value="대중교통&amp;nbsp;&lt;div&gt;혼잡도 통계&lt;/div&gt;" style="text;html=1;align=center;verticalAlign=middle;resizable=0;points=[];autosize=1;strokeColor=none;fillColor=none;rotation=0;" vertex="1" parent="Lw_55-2FXYPwDF8fNayq-2">
          <mxGeometry x="390" y="130" width="90" height="40" as="geometry" />
        </mxCell>
      </root>
    </mxGraphModel>
  </diagram>
  <diagram id="RLLnu2ilZ6CRbLhkSZaC" name="Use Case Diagram">
    <mxGraphModel dx="1290" dy="582" grid="1" gridSize="10" guides="1" tooltips="1" connect="1" arrows="1" fold="1" page="1" pageScale="1" pageWidth="827" pageHeight="1169" math="0" shadow="0">
      <root>
        <mxCell id="0" />
        <mxCell id="1" parent="0" />
        <mxCell id="JHukUf_lIsDlbDUcY-Vi-2" value="대중교통 길찾기 혼잡도 분석 서비스" style="swimlane;whiteSpace=wrap;html=1;" vertex="1" parent="1">
          <mxGeometry x="130" y="110" width="560" height="450" as="geometry" />
        </mxCell>
        <mxCell id="JHukUf_lIsDlbDUcY-Vi-4" value="&lt;div&gt;UC-01&lt;/div&gt;길찾기" style="ellipse;whiteSpace=wrap;html=1;" vertex="1" parent="JHukUf_lIsDlbDUcY-Vi-2">
          <mxGeometry x="200" y="150" width="110" height="50" as="geometry" />
        </mxCell>
        <mxCell id="JHukUf_lIsDlbDUcY-Vi-12" value="&lt;div&gt;UC-06&lt;/div&gt;즐겨찾는 경로" style="ellipse;whiteSpace=wrap;html=1;" vertex="1" parent="JHukUf_lIsDlbDUcY-Vi-2">
          <mxGeometry x="200" y="300" width="110" height="50" as="geometry" />
        </mxCell>
        <mxCell id="JHukUf_lIsDlbDUcY-Vi-15" value="&lt;div&gt;UC-05&lt;/div&gt;회원 가입" style="ellipse;whiteSpace=wrap;html=1;" vertex="1" parent="JHukUf_lIsDlbDUcY-Vi-2">
          <mxGeometry x="90" y="230" width="100" height="52.5" as="geometry" />
        </mxCell>
        <mxCell id="JHukUf_lIsDlbDUcY-Vi-21" value="&lt;div&gt;UC-02&lt;/div&gt;길찾기 API" style="ellipse;whiteSpace=wrap;html=1;" vertex="1" parent="JHukUf_lIsDlbDUcY-Vi-2">
          <mxGeometry x="170" y="40" width="110" height="50" as="geometry" />
        </mxCell>
        <mxCell id="JHukUf_lIsDlbDUcY-Vi-22" value="&amp;lt;&amp;lt;extend&amp;gt;&amp;gt;" style="edgeStyle=none;html=1;startArrow=open;endArrow=none;startSize=12;verticalAlign=bottom;dashed=1;labelBackgroundColor=none;rounded=0;exitX=0.5;exitY=1;exitDx=0;exitDy=0;entryX=0.273;entryY=0.075;entryDx=0;entryDy=0;entryPerimeter=0;" edge="1" parent="JHukUf_lIsDlbDUcY-Vi-2" source="JHukUf_lIsDlbDUcY-Vi-4" target="JHukUf_lIsDlbDUcY-Vi-12">
          <mxGeometry width="160" relative="1" as="geometry">
            <mxPoint x="280" y="260" as="sourcePoint" />
            <mxPoint x="440" y="260" as="targetPoint" />
          </mxGeometry>
        </mxCell>
        <mxCell id="JHukUf_lIsDlbDUcY-Vi-20" value="&amp;lt;&amp;lt;include&amp;gt;&amp;gt;" style="html=1;verticalAlign=bottom;labelBackgroundColor=none;endArrow=open;endFill=0;dashed=1;rounded=0;entryX=0.324;entryY=0.94;entryDx=0;entryDy=0;entryPerimeter=0;exitX=0.335;exitY=-0.076;exitDx=0;exitDy=0;exitPerimeter=0;" edge="1" parent="JHukUf_lIsDlbDUcY-Vi-2" source="JHukUf_lIsDlbDUcY-Vi-4" target="JHukUf_lIsDlbDUcY-Vi-21">
          <mxGeometry width="160" relative="1" as="geometry">
            <mxPoint x="130" y="110" as="sourcePoint" />
            <mxPoint x="440" y="260" as="targetPoint" />
          </mxGeometry>
        </mxCell>
        <mxCell id="JHukUf_lIsDlbDUcY-Vi-24" value="&lt;div&gt;UC-03&lt;/div&gt;실시간 혼잡도 분석" style="ellipse;whiteSpace=wrap;html=1;" vertex="1" parent="JHukUf_lIsDlbDUcY-Vi-2">
          <mxGeometry x="350" y="70" width="110" height="50" as="geometry" />
        </mxCell>
        <mxCell id="JHukUf_lIsDlbDUcY-Vi-25" value="&amp;lt;&amp;lt;include&amp;gt;&amp;gt;" style="html=1;verticalAlign=bottom;labelBackgroundColor=none;endArrow=open;endFill=0;dashed=1;rounded=0;exitX=0.727;exitY=0;exitDx=0;exitDy=0;exitPerimeter=0;entryX=0;entryY=0.5;entryDx=0;entryDy=0;" edge="1" parent="JHukUf_lIsDlbDUcY-Vi-2" source="JHukUf_lIsDlbDUcY-Vi-4" target="JHukUf_lIsDlbDUcY-Vi-24">
          <mxGeometry width="160" relative="1" as="geometry">
            <mxPoint x="330" y="105" as="sourcePoint" />
            <mxPoint x="240" y="110" as="targetPoint" />
          </mxGeometry>
        </mxCell>
        <mxCell id="JHukUf_lIsDlbDUcY-Vi-26" value="&lt;div&gt;UC-04&lt;/div&gt;혼잡도 분석 통계" style="ellipse;whiteSpace=wrap;html=1;" vertex="1" parent="JHukUf_lIsDlbDUcY-Vi-2">
          <mxGeometry x="360" y="212.5" width="110" height="50" as="geometry" />
        </mxCell>
        <mxCell id="JHukUf_lIsDlbDUcY-Vi-27" value="&amp;lt;&amp;lt;include&amp;gt;&amp;gt;" style="html=1;verticalAlign=bottom;labelBackgroundColor=none;endArrow=open;endFill=0;dashed=1;rounded=0;entryX=0.036;entryY=0.29;entryDx=0;entryDy=0;entryPerimeter=0;exitX=1;exitY=0.5;exitDx=0;exitDy=0;" edge="1" parent="JHukUf_lIsDlbDUcY-Vi-2" source="JHukUf_lIsDlbDUcY-Vi-4" target="JHukUf_lIsDlbDUcY-Vi-26">
          <mxGeometry width="160" relative="1" as="geometry">
            <mxPoint x="280" y="230" as="sourcePoint" />
            <mxPoint x="219" y="158" as="targetPoint" />
          </mxGeometry>
        </mxCell>
        <mxCell id="JHukUf_lIsDlbDUcY-Vi-44" value="&lt;div&gt;UC-07&lt;/div&gt;&lt;div&gt;피드백 수집&lt;/div&gt;" style="ellipse;whiteSpace=wrap;html=1;" vertex="1" parent="JHukUf_lIsDlbDUcY-Vi-2">
          <mxGeometry x="140" y="360" width="110" height="50" as="geometry" />
        </mxCell>
        <mxCell id="JHukUf_lIsDlbDUcY-Vi-13" style="edgeStyle=orthogonalEdgeStyle;rounded=0;orthogonalLoop=1;jettySize=auto;html=1;exitX=1;exitY=0.3333333333333333;exitDx=0;exitDy=0;exitPerimeter=0;entryX=0;entryY=0.5;entryDx=0;entryDy=0;" edge="1" parent="1" source="JHukUf_lIsDlbDUcY-Vi-3" target="JHukUf_lIsDlbDUcY-Vi-4">
          <mxGeometry relative="1" as="geometry" />
        </mxCell>
        <mxCell id="JHukUf_lIsDlbDUcY-Vi-43" style="edgeStyle=orthogonalEdgeStyle;rounded=0;orthogonalLoop=1;jettySize=auto;html=1;exitX=1;exitY=1;exitDx=0;exitDy=0;exitPerimeter=0;entryX=0;entryY=0.5;entryDx=0;entryDy=0;" edge="1" parent="1" source="JHukUf_lIsDlbDUcY-Vi-3" target="JHukUf_lIsDlbDUcY-Vi-12">
          <mxGeometry relative="1" as="geometry" />
        </mxCell>
        <mxCell id="JHukUf_lIsDlbDUcY-Vi-51" style="edgeStyle=orthogonalEdgeStyle;rounded=0;orthogonalLoop=1;jettySize=auto;html=1;entryX=0;entryY=0.5;entryDx=0;entryDy=0;" edge="1" parent="1" source="JHukUf_lIsDlbDUcY-Vi-3" target="JHukUf_lIsDlbDUcY-Vi-44">
          <mxGeometry relative="1" as="geometry" />
        </mxCell>
        <mxCell id="JHukUf_lIsDlbDUcY-Vi-3" value="사용자" style="shape=umlActor;verticalLabelPosition=bottom;verticalAlign=top;html=1;outlineConnect=0;" vertex="1" parent="1">
          <mxGeometry x="40" y="250" width="30" height="60" as="geometry" />
        </mxCell>
        <mxCell id="JHukUf_lIsDlbDUcY-Vi-30" style="edgeStyle=orthogonalEdgeStyle;rounded=0;orthogonalLoop=1;jettySize=auto;html=1;exitX=0;exitY=0.3333333333333333;exitDx=0;exitDy=0;exitPerimeter=0;entryX=1;entryY=0.5;entryDx=0;entryDy=0;" edge="1" parent="1" source="JHukUf_lIsDlbDUcY-Vi-10" target="JHukUf_lIsDlbDUcY-Vi-26">
          <mxGeometry relative="1" as="geometry">
            <Array as="points">
              <mxPoint x="640" y="420" />
              <mxPoint x="640" y="348" />
            </Array>
          </mxGeometry>
        </mxCell>
        <mxCell id="JHukUf_lIsDlbDUcY-Vi-46" style="edgeStyle=orthogonalEdgeStyle;rounded=0;orthogonalLoop=1;jettySize=auto;html=1;entryX=1;entryY=0.5;entryDx=0;entryDy=0;" edge="1" parent="1" source="JHukUf_lIsDlbDUcY-Vi-10" target="JHukUf_lIsDlbDUcY-Vi-15">
          <mxGeometry relative="1" as="geometry">
            <Array as="points">
              <mxPoint x="525" y="410" />
              <mxPoint x="525" y="380" />
              <mxPoint x="320" y="380" />
            </Array>
          </mxGeometry>
        </mxCell>
        <mxCell id="JHukUf_lIsDlbDUcY-Vi-10" value="관리자" style="shape=umlActor;verticalLabelPosition=bottom;verticalAlign=top;html=1;outlineConnect=0;" vertex="1" parent="1">
          <mxGeometry x="730" y="400" width="30" height="60" as="geometry" />
        </mxCell>
        <mxCell id="JHukUf_lIsDlbDUcY-Vi-17" value="" style="endArrow=classic;html=1;rounded=0;entryX=0;entryY=0.5;entryDx=0;entryDy=0;" edge="1" parent="1" source="JHukUf_lIsDlbDUcY-Vi-3" target="JHukUf_lIsDlbDUcY-Vi-15">
          <mxGeometry width="50" height="50" relative="1" as="geometry">
            <mxPoint x="470" y="400" as="sourcePoint" />
            <mxPoint x="520" y="350" as="targetPoint" />
          </mxGeometry>
        </mxCell>
        <mxCell id="JHukUf_lIsDlbDUcY-Vi-34" style="edgeStyle=orthogonalEdgeStyle;rounded=0;orthogonalLoop=1;jettySize=auto;html=1;entryX=1;entryY=0;entryDx=0;entryDy=0;" edge="1" parent="1" source="JHukUf_lIsDlbDUcY-Vi-32" target="JHukUf_lIsDlbDUcY-Vi-26">
          <mxGeometry relative="1" as="geometry" />
        </mxCell>
        <mxCell id="JHukUf_lIsDlbDUcY-Vi-32" value="&amp;lt;&amp;lt;actor&amp;gt;&amp;gt;&lt;br&gt;&lt;br&gt;&lt;b&gt;서울시&lt;/b&gt;" style="html=1;align=center;verticalAlign=middle;dashed=0;whiteSpace=wrap;" vertex="1" parent="1">
          <mxGeometry x="700" y="330" width="110" height="50" as="geometry" />
        </mxCell>
        <mxCell id="JHukUf_lIsDlbDUcY-Vi-40" style="edgeStyle=orthogonalEdgeStyle;rounded=0;orthogonalLoop=1;jettySize=auto;html=1;entryX=1;entryY=0.5;entryDx=0;entryDy=0;" edge="1" parent="1" source="JHukUf_lIsDlbDUcY-Vi-36" target="JHukUf_lIsDlbDUcY-Vi-24">
          <mxGeometry relative="1" as="geometry" />
        </mxCell>
        <mxCell id="JHukUf_lIsDlbDUcY-Vi-36" value="&amp;lt;&amp;lt;actor&amp;gt;&amp;gt;&lt;br&gt;&lt;br&gt;&lt;b&gt;서울교통공사&lt;/b&gt;" style="html=1;align=center;verticalAlign=middle;dashed=0;whiteSpace=wrap;" vertex="1" parent="1">
          <mxGeometry x="700" y="205" width="110" height="50" as="geometry" />
        </mxCell>
        <mxCell id="JHukUf_lIsDlbDUcY-Vi-41" style="edgeStyle=orthogonalEdgeStyle;rounded=0;orthogonalLoop=1;jettySize=auto;html=1;entryX=1;entryY=0;entryDx=0;entryDy=0;" edge="1" parent="1" source="JHukUf_lIsDlbDUcY-Vi-37" target="JHukUf_lIsDlbDUcY-Vi-24">
          <mxGeometry relative="1" as="geometry" />
        </mxCell>
        <mxCell id="JHukUf_lIsDlbDUcY-Vi-37" value="&amp;lt;&amp;lt;actor&amp;gt;&amp;gt;&lt;br&gt;&lt;br&gt;&lt;b&gt;한국철도공사&lt;/b&gt;" style="html=1;align=center;verticalAlign=middle;dashed=0;whiteSpace=wrap;" vertex="1" parent="1">
          <mxGeometry x="700" y="130" width="110" height="50" as="geometry" />
        </mxCell>
        <mxCell id="JHukUf_lIsDlbDUcY-Vi-39" style="edgeStyle=orthogonalEdgeStyle;rounded=0;orthogonalLoop=1;jettySize=auto;html=1;entryX=1;entryY=1;entryDx=0;entryDy=0;" edge="1" parent="1" source="JHukUf_lIsDlbDUcY-Vi-38" target="JHukUf_lIsDlbDUcY-Vi-24">
          <mxGeometry relative="1" as="geometry" />
        </mxCell>
        <mxCell id="JHukUf_lIsDlbDUcY-Vi-38" value="&amp;lt;&amp;lt;actor&amp;gt;&amp;gt;&lt;br&gt;&lt;b&gt;버스 정보&amp;nbsp;&lt;/b&gt;&lt;div&gt;&lt;b&gt;안내 단말기&lt;/b&gt;&lt;/div&gt;" style="html=1;align=center;verticalAlign=middle;dashed=0;whiteSpace=wrap;" vertex="1" parent="1">
          <mxGeometry x="700" y="260" width="110" height="50" as="geometry" />
        </mxCell>
      </root>
    </mxGraphModel>
  </diagram>
  <diagram id="zuGNs1ZZ8M0npMZ0GDfP" name="페이지-3">
    <mxGraphModel dx="3967" dy="1902" grid="0" gridSize="10" guides="1" tooltips="1" connect="1" arrows="1" fold="1" page="0" pageScale="1" pageWidth="827" pageHeight="1169" math="0" shadow="0">
      <root>
        <mxCell id="0" />
        <mxCell id="1" parent="0" />
        <mxCell id="EcCsgrKJUqZAnnrIpXWc-1" value="Sequnce diagram" style="shape=umlFrame;whiteSpace=wrap;html=1;pointerEvents=0;width=120;height=21;" vertex="1" parent="1">
          <mxGeometry x="-2436" y="-1112" width="705" height="563" as="geometry" />
        </mxCell>
        <mxCell id="EcCsgrKJUqZAnnrIpXWc-14" value="시스템 UI" style="rounded=0;whiteSpace=wrap;html=1;" vertex="1" parent="1">
          <mxGeometry x="-2269" y="-1032" width="100" height="50" as="geometry" />
        </mxCell>
        <mxCell id="EcCsgrKJUqZAnnrIpXWc-17" value="혼잡도 분석 시스템" style="rounded=0;whiteSpace=wrap;html=1;" vertex="1" parent="1">
          <mxGeometry x="-2037" y="-1032" width="109" height="50" as="geometry" />
        </mxCell>
        <mxCell id="EcCsgrKJUqZAnnrIpXWc-19" value="사용자" style="rounded=0;whiteSpace=wrap;html=1;" vertex="1" parent="1">
          <mxGeometry x="-2397" y="-1032" width="100" height="50" as="geometry" />
        </mxCell>
        <mxCell id="EcCsgrKJUqZAnnrIpXWc-20" value="공공기관&lt;div&gt;(서울 교통공사, 서울시, 한국 철도공사, BIS)&lt;/div&gt;" style="rounded=0;whiteSpace=wrap;html=1;" vertex="1" parent="1">
          <mxGeometry x="-1897" y="-1032" width="135" height="50" as="geometry" />
        </mxCell>
        <mxCell id="EcCsgrKJUqZAnnrIpXWc-22" style="edgeStyle=none;curved=1;rounded=0;orthogonalLoop=1;jettySize=auto;html=1;exitX=0.75;exitY=1;exitDx=0;exitDy=0;fontSize=12;startSize=8;endSize=8;" edge="1" parent="1" source="EcCsgrKJUqZAnnrIpXWc-20" target="EcCsgrKJUqZAnnrIpXWc-20">
          <mxGeometry relative="1" as="geometry" />
        </mxCell>
        <mxCell id="EcCsgrKJUqZAnnrIpXWc-23" value="" style="endArrow=none;dashed=1;html=1;rounded=0;fontSize=12;startSize=8;endSize=8;curved=1;entryX=0.5;entryY=1;entryDx=0;entryDy=0;" edge="1" parent="1" source="EcCsgrKJUqZAnnrIpXWc-28" target="EcCsgrKJUqZAnnrIpXWc-19">
          <mxGeometry width="50" height="50" relative="1" as="geometry">
            <mxPoint x="-2084" y="-898" as="sourcePoint" />
            <mxPoint x="-2034" y="-948" as="targetPoint" />
          </mxGeometry>
        </mxCell>
        <mxCell id="EcCsgrKJUqZAnnrIpXWc-25" value="" style="endArrow=none;dashed=1;html=1;rounded=0;fontSize=12;startSize=8;endSize=8;curved=1;entryX=0.5;entryY=1;entryDx=0;entryDy=0;exitX=0.141;exitY=1.007;exitDx=0;exitDy=0;exitPerimeter=0;" edge="1" parent="1" source="EcCsgrKJUqZAnnrIpXWc-31">
          <mxGeometry width="50" height="50" relative="1" as="geometry">
            <mxPoint x="-2218" y="-545" as="sourcePoint" />
            <mxPoint x="-2218" y="-982" as="targetPoint" />
          </mxGeometry>
        </mxCell>
        <mxCell id="EcCsgrKJUqZAnnrIpXWc-26" value="" style="endArrow=none;dashed=1;html=1;rounded=0;fontSize=12;startSize=8;endSize=8;curved=1;entryX=0.5;entryY=1;entryDx=0;entryDy=0;exitX=0.141;exitY=1.007;exitDx=0;exitDy=0;exitPerimeter=0;" edge="1" parent="1" source="EcCsgrKJUqZAnnrIpXWc-33">
          <mxGeometry width="50" height="50" relative="1" as="geometry">
            <mxPoint x="-1983.17" y="-552" as="sourcePoint" />
            <mxPoint x="-1983.17" y="-989" as="targetPoint" />
          </mxGeometry>
        </mxCell>
        <mxCell id="EcCsgrKJUqZAnnrIpXWc-27" value="" style="endArrow=none;dashed=1;html=1;rounded=0;fontSize=12;startSize=8;endSize=8;curved=1;entryX=0.5;entryY=1;entryDx=0;entryDy=0;exitX=0.141;exitY=1.007;exitDx=0;exitDy=0;exitPerimeter=0;" edge="1" parent="1" source="EcCsgrKJUqZAnnrIpXWc-35">
          <mxGeometry width="50" height="50" relative="1" as="geometry">
            <mxPoint x="-1830.17" y="-545" as="sourcePoint" />
            <mxPoint x="-1830.17" y="-982" as="targetPoint" />
          </mxGeometry>
        </mxCell>
        <mxCell id="EcCsgrKJUqZAnnrIpXWc-30" value="" style="endArrow=none;dashed=1;html=1;rounded=0;fontSize=12;startSize=8;endSize=8;curved=1;entryX=0.5;entryY=1;entryDx=0;entryDy=0;" edge="1" parent="1" target="EcCsgrKJUqZAnnrIpXWc-28">
          <mxGeometry width="50" height="50" relative="1" as="geometry">
            <mxPoint x="-2347" y="-551" as="sourcePoint" />
            <mxPoint x="-2347" y="-982" as="targetPoint" />
          </mxGeometry>
        </mxCell>
        <mxCell id="EcCsgrKJUqZAnnrIpXWc-28" value="" style="html=1;points=[[0,0,0,0,5],[0,1,0,0,-5],[1,0,0,0,5],[1,1,0,0,-5]];perimeter=orthogonalPerimeter;outlineConnect=0;targetShapes=umlLifeline;portConstraint=eastwest;newEdgeStyle={&quot;curved&quot;:0,&quot;rounded&quot;:0};" vertex="1" parent="1">
          <mxGeometry x="-2352" y="-948" width="10" height="221" as="geometry" />
        </mxCell>
        <mxCell id="EcCsgrKJUqZAnnrIpXWc-32" value="" style="endArrow=none;dashed=1;html=1;rounded=0;fontSize=12;startSize=8;endSize=8;curved=1;entryX=0.5;entryY=1;entryDx=0;entryDy=0;exitX=0.141;exitY=1.007;exitDx=0;exitDy=0;exitPerimeter=0;" edge="1" parent="1" target="EcCsgrKJUqZAnnrIpXWc-31">
          <mxGeometry width="50" height="50" relative="1" as="geometry">
            <mxPoint x="-2218" y="-545" as="sourcePoint" />
            <mxPoint x="-2218" y="-982" as="targetPoint" />
          </mxGeometry>
        </mxCell>
        <mxCell id="EcCsgrKJUqZAnnrIpXWc-31" value="" style="html=1;points=[[0,0,0,0,5],[0,1,0,0,-5],[1,0,0,0,5],[1,1,0,0,-5]];perimeter=orthogonalPerimeter;outlineConnect=0;targetShapes=umlLifeline;portConstraint=eastwest;newEdgeStyle={&quot;curved&quot;:0,&quot;rounded&quot;:0};" vertex="1" parent="1">
          <mxGeometry x="-2224" y="-951" width="10" height="162" as="geometry" />
        </mxCell>
        <mxCell id="EcCsgrKJUqZAnnrIpXWc-34" value="" style="endArrow=none;dashed=1;html=1;rounded=0;fontSize=12;startSize=8;endSize=8;curved=1;entryX=0.5;entryY=1;entryDx=0;entryDy=0;exitX=0.141;exitY=1.007;exitDx=0;exitDy=0;exitPerimeter=0;" edge="1" parent="1" target="EcCsgrKJUqZAnnrIpXWc-33">
          <mxGeometry width="50" height="50" relative="1" as="geometry">
            <mxPoint x="-1983.17" y="-552" as="sourcePoint" />
            <mxPoint x="-1983.17" y="-989" as="targetPoint" />
          </mxGeometry>
        </mxCell>
        <mxCell id="EcCsgrKJUqZAnnrIpXWc-33" value="" style="html=1;points=[[0,0,0,0,5],[0,1,0,0,-5],[1,0,0,0,5],[1,1,0,0,-5]];perimeter=orthogonalPerimeter;outlineConnect=0;targetShapes=umlLifeline;portConstraint=eastwest;newEdgeStyle={&quot;curved&quot;:0,&quot;rounded&quot;:0};" vertex="1" parent="1">
          <mxGeometry x="-1987.5" y="-849" width="10" height="103" as="geometry" />
        </mxCell>
        <mxCell id="EcCsgrKJUqZAnnrIpXWc-36" value="" style="endArrow=none;dashed=1;html=1;rounded=0;fontSize=12;startSize=8;endSize=8;curved=1;entryX=0.5;entryY=1;entryDx=0;entryDy=0;exitX=0.141;exitY=1.007;exitDx=0;exitDy=0;exitPerimeter=0;" edge="1" parent="1" target="EcCsgrKJUqZAnnrIpXWc-35">
          <mxGeometry width="50" height="50" relative="1" as="geometry">
            <mxPoint x="-1830.17" y="-545" as="sourcePoint" />
            <mxPoint x="-1830.17" y="-982" as="targetPoint" />
          </mxGeometry>
        </mxCell>
        <mxCell id="EcCsgrKJUqZAnnrIpXWc-35" value="" style="html=1;points=[[0,0,0,0,5],[0,1,0,0,-5],[1,0,0,0,5],[1,1,0,0,-5]];perimeter=orthogonalPerimeter;outlineConnect=0;targetShapes=umlLifeline;portConstraint=eastwest;newEdgeStyle={&quot;curved&quot;:0,&quot;rounded&quot;:0};" vertex="1" parent="1">
          <mxGeometry x="-1834.5" y="-836" width="10" height="70" as="geometry" />
        </mxCell>
        <mxCell id="EcCsgrKJUqZAnnrIpXWc-37" value="" style="endArrow=classic;html=1;rounded=0;fontSize=12;startSize=8;endSize=8;curved=1;" edge="1" parent="1">
          <mxGeometry width="50" height="50" relative="1" as="geometry">
            <mxPoint x="-2338" y="-922" as="sourcePoint" />
            <mxPoint x="-2220" y="-922" as="targetPoint" />
          </mxGeometry>
        </mxCell>
        <mxCell id="EcCsgrKJUqZAnnrIpXWc-38" value="&lt;sub&gt;경로 입력 하여 길찾기&amp;nbsp;&lt;/sub&gt;" style="edgeLabel;html=1;align=center;verticalAlign=middle;resizable=0;points=[];fontSize=12;" vertex="1" connectable="0" parent="EcCsgrKJUqZAnnrIpXWc-37">
          <mxGeometry x="-0.1917" y="3" relative="1" as="geometry">
            <mxPoint x="10" y="-9" as="offset" />
          </mxGeometry>
        </mxCell>
        <mxCell id="EcCsgrKJUqZAnnrIpXWc-41" value="" style="endArrow=classic;html=1;rounded=0;fontSize=12;startSize=8;endSize=8;curved=1;" edge="1" parent="1">
          <mxGeometry width="50" height="50" relative="1" as="geometry">
            <mxPoint x="-2210" y="-902" as="sourcePoint" />
            <mxPoint x="-2103.5" y="-902" as="targetPoint" />
          </mxGeometry>
        </mxCell>
        <mxCell id="EcCsgrKJUqZAnnrIpXWc-42" value="&lt;span style=&quot;font-size: 10px;&quot;&gt;API 호출&lt;/span&gt;" style="edgeLabel;html=1;align=center;verticalAlign=middle;resizable=0;points=[];fontSize=12;" vertex="1" connectable="0" parent="EcCsgrKJUqZAnnrIpXWc-41">
          <mxGeometry x="-0.1917" y="3" relative="1" as="geometry">
            <mxPoint x="8" y="-16" as="offset" />
          </mxGeometry>
        </mxCell>
        <mxCell id="EcCsgrKJUqZAnnrIpXWc-44" value="길찾기 API" style="rounded=0;whiteSpace=wrap;html=1;" vertex="1" parent="1">
          <mxGeometry x="-2153" y="-1032" width="109" height="50" as="geometry" />
        </mxCell>
        <mxCell id="EcCsgrKJUqZAnnrIpXWc-45" value="" style="endArrow=none;dashed=1;html=1;rounded=0;fontSize=12;startSize=8;endSize=8;curved=1;entryX=0.5;entryY=1;entryDx=0;entryDy=0;exitX=0.141;exitY=1.007;exitDx=0;exitDy=0;exitPerimeter=0;" edge="1" parent="1" source="EcCsgrKJUqZAnnrIpXWc-47">
          <mxGeometry width="50" height="50" relative="1" as="geometry">
            <mxPoint x="-2099.17" y="-552" as="sourcePoint" />
            <mxPoint x="-2099.17" y="-989" as="targetPoint" />
          </mxGeometry>
        </mxCell>
        <mxCell id="EcCsgrKJUqZAnnrIpXWc-46" value="" style="endArrow=none;dashed=1;html=1;rounded=0;fontSize=12;startSize=8;endSize=8;curved=1;entryX=0.5;entryY=1;entryDx=0;entryDy=0;exitX=0.141;exitY=1.007;exitDx=0;exitDy=0;exitPerimeter=0;" edge="1" parent="1" target="EcCsgrKJUqZAnnrIpXWc-47">
          <mxGeometry width="50" height="50" relative="1" as="geometry">
            <mxPoint x="-2099.17" y="-552" as="sourcePoint" />
            <mxPoint x="-2099.17" y="-989" as="targetPoint" />
          </mxGeometry>
        </mxCell>
        <mxCell id="EcCsgrKJUqZAnnrIpXWc-47" value="" style="html=1;points=[[0,0,0,0,5],[0,1,0,0,-5],[1,0,0,0,5],[1,1,0,0,-5]];perimeter=orthogonalPerimeter;outlineConnect=0;targetShapes=umlLifeline;portConstraint=eastwest;newEdgeStyle={&quot;curved&quot;:0,&quot;rounded&quot;:0};" vertex="1" parent="1">
          <mxGeometry x="-2103.5" y="-929" width="10" height="59" as="geometry" />
        </mxCell>
        <mxCell id="EcCsgrKJUqZAnnrIpXWc-48" value="" style="endArrow=classic;html=1;rounded=0;fontSize=12;startSize=8;endSize=8;curved=1;" edge="1" parent="1">
          <mxGeometry width="50" height="50" relative="1" as="geometry">
            <mxPoint x="-2103.5" y="-880" as="sourcePoint" />
            <mxPoint x="-2213.5" y="-880" as="targetPoint" />
          </mxGeometry>
        </mxCell>
        <mxCell id="EcCsgrKJUqZAnnrIpXWc-49" value="&lt;span style=&quot;font-size: 10px;&quot;&gt;최적 경로들 반환&lt;/span&gt;" style="edgeLabel;html=1;align=center;verticalAlign=middle;resizable=0;points=[];fontSize=12;" vertex="1" connectable="0" parent="EcCsgrKJUqZAnnrIpXWc-48">
          <mxGeometry x="-0.1917" y="3" relative="1" as="geometry">
            <mxPoint x="-10" y="-16" as="offset" />
          </mxGeometry>
        </mxCell>
        <mxCell id="EcCsgrKJUqZAnnrIpXWc-51" value="" style="endArrow=classic;html=1;rounded=0;fontSize=12;startSize=8;endSize=8;curved=1;" edge="1" parent="1">
          <mxGeometry width="50" height="50" relative="1" as="geometry">
            <mxPoint x="-2212" y="-836" as="sourcePoint" />
            <mxPoint x="-1985" y="-836" as="targetPoint" />
          </mxGeometry>
        </mxCell>
        <mxCell id="EcCsgrKJUqZAnnrIpXWc-52" value="&lt;span style=&quot;font-size: 10px;&quot;&gt;경로 혼잡도 분석 요청&lt;/span&gt;" style="edgeLabel;html=1;align=center;verticalAlign=middle;resizable=0;points=[];fontSize=12;" vertex="1" connectable="0" parent="EcCsgrKJUqZAnnrIpXWc-51">
          <mxGeometry x="-0.1917" y="3" relative="1" as="geometry">
            <mxPoint x="-10" y="-16" as="offset" />
          </mxGeometry>
        </mxCell>
        <mxCell id="EcCsgrKJUqZAnnrIpXWc-53" value="" style="endArrow=classic;html=1;rounded=0;fontSize=12;startSize=8;endSize=8;curved=1;" edge="1" parent="1">
          <mxGeometry width="50" height="50" relative="1" as="geometry">
            <mxPoint x="-1973" y="-817" as="sourcePoint" />
            <mxPoint x="-1831" y="-817" as="targetPoint" />
          </mxGeometry>
        </mxCell>
        <mxCell id="EcCsgrKJUqZAnnrIpXWc-54" value="&lt;span style=&quot;font-size: 10px;&quot;&gt;대중교통 혼잡도 데이터 요청&lt;/span&gt;" style="edgeLabel;html=1;align=center;verticalAlign=middle;resizable=0;points=[];fontSize=12;" vertex="1" connectable="0" parent="EcCsgrKJUqZAnnrIpXWc-53">
          <mxGeometry x="-0.1917" y="3" relative="1" as="geometry">
            <mxPoint x="10" y="-12" as="offset" />
          </mxGeometry>
        </mxCell>
        <mxCell id="EcCsgrKJUqZAnnrIpXWc-55" value="" style="endArrow=classic;html=1;rounded=0;fontSize=12;startSize=8;endSize=8;curved=1;entryX=0.85;entryY=0.662;entryDx=0;entryDy=0;entryPerimeter=0;" edge="1" parent="1">
          <mxGeometry width="50" height="50" relative="1" as="geometry">
            <mxPoint x="-1831" y="-783.0000000000001" as="sourcePoint" />
            <mxPoint x="-1979" y="-783.0000000000001" as="targetPoint" />
          </mxGeometry>
        </mxCell>
        <mxCell id="EcCsgrKJUqZAnnrIpXWc-56" value="&lt;span style=&quot;font-size: 10px;&quot;&gt;대중교통 혼잡도 데이터 반환&lt;/span&gt;" style="edgeLabel;html=1;align=center;verticalAlign=middle;resizable=0;points=[];fontSize=12;" vertex="1" connectable="0" parent="EcCsgrKJUqZAnnrIpXWc-55">
          <mxGeometry x="-0.1917" y="3" relative="1" as="geometry">
            <mxPoint x="-9" y="-15" as="offset" />
          </mxGeometry>
        </mxCell>
        <mxCell id="EcCsgrKJUqZAnnrIpXWc-57" value="" style="endArrow=classic;html=1;rounded=0;fontSize=12;startSize=8;endSize=8;curved=1;" edge="1" parent="1" target="EcCsgrKJUqZAnnrIpXWc-28">
          <mxGeometry width="50" height="50" relative="1" as="geometry">
            <mxPoint x="-1987.5" y="-766.0000000000001" as="sourcePoint" />
            <mxPoint x="-2135.5" y="-766.0000000000001" as="targetPoint" />
          </mxGeometry>
        </mxCell>
        <mxCell id="EcCsgrKJUqZAnnrIpXWc-58" value="&lt;span style=&quot;font-size: 10px;&quot;&gt;대중교통 혼잡도 분석 결과&lt;/span&gt;" style="edgeLabel;html=1;align=center;verticalAlign=middle;resizable=0;points=[];fontSize=12;" vertex="1" connectable="0" parent="EcCsgrKJUqZAnnrIpXWc-57">
          <mxGeometry x="-0.1917" y="3" relative="1" as="geometry">
            <mxPoint x="-9" y="-15" as="offset" />
          </mxGeometry>
        </mxCell>
        <mxCell id="EcCsgrKJUqZAnnrIpXWc-62" value="" style="endArrow=classic;html=1;rounded=0;fontSize=12;startSize=8;endSize=8;curved=1;" edge="1" parent="1">
          <mxGeometry width="50" height="50" relative="1" as="geometry">
            <mxPoint x="-2224" y="-866" as="sourcePoint" />
            <mxPoint x="-2342" y="-866" as="targetPoint" />
          </mxGeometry>
        </mxCell>
        <mxCell id="EcCsgrKJUqZAnnrIpXWc-63" value="&lt;span style=&quot;font-size: 10px;&quot;&gt;길찾기 결과&lt;/span&gt;" style="edgeLabel;html=1;align=center;verticalAlign=middle;resizable=0;points=[];fontSize=12;" vertex="1" connectable="0" parent="EcCsgrKJUqZAnnrIpXWc-62">
          <mxGeometry x="-0.1917" y="3" relative="1" as="geometry">
            <mxPoint x="-10" y="-16" as="offset" />
          </mxGeometry>
        </mxCell>
      </root>
    </mxGraphModel>
  </diagram>
</mxfile>
